<?xml version="1.0" encoding="UTF-8" standalone="no"?>
<!DOCTYPE svg PUBLIC "-//W3C//DTD SVG 1.1//EN" "http://www.w3.org/Graphics/SVG/1.1/DTD/svg11.dtd">
<svg width="100%" height="100%" viewBox="0 0 1972 397" version="1.1" xmlns="http://www.w3.org/2000/svg" xmlns:xlink="http://www.w3.org/1999/xlink" xml:space="preserve" style="fill-rule:evenodd;clip-rule:evenodd;stroke-linejoin:round;stroke-miterlimit:2;">
    <g id="logo-Dark-">
        <g transform="matrix(1,0,0,1,1621.36,185.889)">
            <path d="M335.261,117.071C336.858,118.097 337.827,119.871 337.827,121.77C337.827,124.418 335.944,126.72 333.348,127.245C330.752,127.769 327.569,129.422 330.815,134.448L346.869,144.673L336.695,160.727C331.669,163.973 329.492,158.194 329.492,158.194C328.972,155.599 326.672,153.714 324.025,153.714C320.967,153.714 318.45,156.231 318.45,159.29C318.45,162.348 320.967,164.865 324.025,164.865C324.472,164.865 324.917,164.811 325.351,164.705C330.947,164.593 330.703,170.158 330.703,170.158L320.529,186.213L278.979,159.761L289.102,143.849C294.128,140.613 296.305,146.382 296.305,146.382C296.818,148.99 299.126,150.889 301.785,150.889C304.849,150.889 307.371,148.367 307.371,145.303C307.371,142.239 304.849,139.718 301.785,139.718C301.334,139.718 300.884,139.772 300.445,139.881C294.85,139.993 295.104,134.428 295.104,134.428L305.421,118.21L321.485,128.445C321.485,128.445 327.05,128.689 326.938,123.094C326.58,121.61 326.837,120.042 327.65,118.75C329.306,116.241 332.703,115.492 335.261,117.071Z" style="fill:rgb(152,138,202);fill-rule:nonzero;"/>
        </g>
        <g id="thepia-text-triad-dark--svg" transform="matrix(3.49215,0,0,3.49215,-693.175,-1038.89)">
            <path d="M379.049,357.052L369.838,357.052L369.838,366.263L368.08,366.263L368.08,355.295L379.049,355.295L379.049,357.052ZM379.049,371.396L369.838,371.396L369.838,380.607L368.08,380.607L368.08,369.709L379.049,369.709L379.049,371.396ZM379.049,385.81L369.838,385.81L369.838,395.021L368.08,395.021L368.08,384.123L379.049,384.123L379.049,385.81ZM364.635,342.638L355.424,342.638L355.424,351.849L353.666,351.849L353.666,340.881L364.635,340.881L364.635,342.638ZM364.635,357.052L355.424,357.052L355.424,366.263L353.666,366.263L353.666,355.295L364.635,355.295L364.635,357.052ZM364.635,371.396L355.424,371.396L355.424,380.607L353.666,380.607L353.666,369.709L364.635,369.709L364.635,371.396ZM364.635,385.81L355.424,385.81L355.424,395.021L353.666,395.021L353.666,384.123L364.635,384.123L364.635,385.81ZM350.221,342.638L341.01,342.638L341.01,351.849L339.252,351.849L339.252,340.881L350.221,340.881L350.221,342.638ZM335.807,342.638L326.737,342.638L326.737,351.849L324.909,351.849L324.909,340.881L335.807,340.881L335.807,342.638ZM321.393,328.224L312.323,328.224L312.323,337.435L310.495,337.435L310.495,326.466L321.393,326.466L321.393,328.224ZM321.393,342.638L312.323,342.638L312.323,351.849L310.495,351.849L310.495,340.881L321.393,340.881L321.393,342.638ZM321.393,357.052L312.323,357.052L312.323,366.263L310.495,366.263L310.495,355.295L321.393,355.295L321.393,357.052ZM321.393,371.396L312.323,371.396L312.323,380.607L310.495,380.607L310.495,369.709L321.393,369.709L321.393,371.396ZM321.393,385.81L312.323,385.81L312.323,395.021L310.495,395.021L310.495,384.123L321.393,384.123L321.393,385.81ZM307.049,328.224L297.838,328.224L297.838,337.435L296.08,337.435L296.08,326.466L307.049,326.466L307.049,328.224ZM307.049,342.638L297.838,342.638L297.838,351.849L296.08,351.849L296.08,340.881L307.049,340.881L307.049,342.638ZM307.049,357.052L297.838,357.052L297.838,366.263L296.08,366.263L296.08,355.295L307.049,355.295L307.049,357.052ZM307.049,371.396L297.838,371.396L297.838,380.607L296.08,380.607L296.08,369.709L307.049,369.709L307.049,371.396ZM307.049,385.81L297.838,385.81L297.838,395.021L296.08,395.021L296.08,384.123L307.049,384.123L307.049,385.81ZM321.393,313.81L312.323,313.81L312.323,323.021L310.495,323.021L310.495,312.123L321.393,312.123L321.393,313.81ZM307.049,313.81L297.838,313.81L297.838,323.021L296.08,323.021L296.08,312.123L307.049,312.123L307.049,313.81Z" style="fill-rule:nonzero;"/>
            <path d="M476.362,342.638L467.151,342.638L467.151,351.849L465.393,351.849L465.393,340.881L476.362,340.881L476.362,342.638ZM476.362,357.052L467.151,357.052L467.151,366.263L465.393,366.263L465.393,355.295L476.362,355.295L476.362,357.052ZM461.948,342.638L452.737,342.638L452.737,351.849L450.979,351.849L450.979,340.881L461.948,340.881L461.948,342.638ZM461.948,357.052L452.737,357.052L452.737,366.263L450.979,366.263L450.979,355.295L461.948,355.295L461.948,357.052ZM461.948,385.81L452.737,385.81L452.737,395.021L450.979,395.021L450.979,384.123L461.948,384.123L461.948,385.81ZM461.948,328.224L452.737,328.224L452.737,337.435L450.979,337.435L450.979,326.466L461.948,326.466L461.948,328.224ZM447.534,357.052L438.323,357.052L438.323,366.263L436.565,366.263L436.565,355.295L447.534,355.295L447.534,357.052ZM447.534,385.81L438.323,385.81L438.323,395.021L436.565,395.021L436.565,384.123L447.534,384.123L447.534,385.81ZM447.534,328.224L438.323,328.224L438.323,337.435L436.565,337.435L436.565,326.466L447.534,326.466L447.534,328.224ZM433.12,357.052L423.909,357.052L423.909,366.263L422.221,366.263L422.221,355.295L433.12,355.295L433.12,357.052ZM433.12,385.81L423.909,385.81L423.909,395.021L422.221,395.021L422.221,384.123L433.12,384.123L433.12,385.81ZM433.12,328.224L423.909,328.224L423.909,337.435L422.221,337.435L422.221,326.466L433.12,326.466L433.12,328.224ZM418.705,342.638L409.495,342.638L409.495,351.849L407.807,351.849L407.807,340.881L418.705,340.881L418.705,342.638ZM418.705,357.052L409.495,357.052L409.495,366.263L407.807,366.263L407.807,355.295L418.705,355.295L418.705,357.052ZM418.705,371.396L409.495,371.396L409.495,380.607L407.807,380.607L407.807,369.709L418.705,369.709L418.705,371.396ZM418.705,385.81L409.495,385.81L409.495,395.021L407.807,395.021L407.807,384.123L418.705,384.123L418.705,385.81ZM418.705,328.224L409.495,328.224L409.495,337.435L407.807,337.435L407.807,326.466L418.705,326.466L418.705,328.224ZM404.362,342.638L395.151,342.638L395.151,351.849L393.393,351.849L393.393,340.881L404.362,340.881L404.362,342.638ZM404.362,357.052L395.151,357.052L395.151,366.263L393.393,366.263L393.393,355.295L404.362,355.295L404.362,357.052ZM404.362,371.396L395.151,371.396L395.151,380.607L393.393,380.607L393.393,369.709L404.362,369.709L404.362,371.396Z" style="fill-rule:nonzero;"/>
            <path d="M573.674,342.638L564.463,342.638L564.463,351.849L562.705,351.849L562.705,340.881L573.674,340.881L573.674,342.638ZM573.674,357.052L564.463,357.052L564.463,366.263L562.705,366.263L562.705,355.295L573.674,355.295L573.674,357.052ZM559.26,342.638L550.049,342.638L550.049,351.849L548.291,351.849L548.291,340.881L559.26,340.881L559.26,342.638ZM559.26,357.052L550.049,357.052L550.049,366.263L548.291,366.263L548.291,355.295L559.26,355.295L559.26,357.052ZM559.26,371.396L550.049,371.396L550.049,380.607L548.291,380.607L548.291,369.709L559.26,369.709L559.26,371.396ZM559.26,328.224L550.049,328.224L550.049,337.435L548.291,337.435L548.291,326.466L559.26,326.466L559.26,328.224ZM544.846,371.396L535.635,371.396L535.635,380.607L533.877,380.607L533.877,369.709L544.846,369.709L544.846,371.396ZM544.846,328.224L535.635,328.224L535.635,337.435L533.877,337.435L533.877,326.466L544.846,326.466L544.846,328.224ZM530.432,371.396L521.221,371.396L521.221,380.607L519.534,380.607L519.534,369.709L530.432,369.709L530.432,371.396ZM530.432,328.224L521.221,328.224L521.221,337.435L519.534,337.435L519.534,326.466L530.432,326.466L530.432,328.224ZM516.018,342.638L506.807,342.638L506.807,351.849L505.12,351.849L505.12,340.881L516.018,340.881L516.018,342.638ZM516.018,357.052L506.807,357.052L506.807,366.263L505.12,366.263L505.12,355.295L516.018,355.295L516.018,357.052ZM516.018,371.396L506.807,371.396L506.807,380.607L505.12,380.607L505.12,369.709L516.018,369.709L516.018,371.396ZM516.018,400.224L506.807,400.224L506.807,409.435L505.12,409.435L505.12,398.466L516.018,398.466L516.018,400.224ZM516.018,328.224L506.807,328.224L506.807,337.435L505.12,337.435L505.12,326.466L516.018,326.466L516.018,328.224ZM501.674,342.638L492.463,342.638L492.463,351.849L490.705,351.849L490.705,340.881L501.674,340.881L501.674,342.638ZM501.674,357.052L492.463,357.052L492.463,366.263L490.705,366.263L490.705,355.295L501.674,355.295L501.674,357.052ZM501.674,371.396L492.463,371.396L492.463,380.607L490.705,380.607L490.705,369.709L501.674,369.709L501.674,371.396ZM501.674,400.224L492.463,400.224L492.463,409.435L490.705,409.435L490.705,398.466L501.674,398.466L501.674,400.224ZM501.674,328.224L492.463,328.224L492.463,337.435L490.705,337.435L490.705,326.466L501.674,326.466L501.674,328.224ZM516.018,385.81L506.807,385.81L506.807,395.021L505.12,395.021L505.12,384.123L516.018,384.123L516.018,385.81ZM501.674,385.81L492.463,385.81L492.463,395.021L490.705,395.021L490.705,384.123L501.674,384.123L501.674,385.81Z" style="fill-rule:nonzero;"/>
            <path d="M642.159,385.81L632.948,385.81L632.948,395.021L631.19,395.021L631.19,384.123L642.159,384.123L642.159,385.81ZM627.745,342.638L618.534,342.638L618.534,351.849L616.846,351.849L616.846,340.881L627.745,340.881L627.745,342.638ZM627.745,357.052L618.534,357.052L618.534,366.263L616.846,366.263L616.846,355.295L627.745,355.295L627.745,357.052ZM627.745,371.396L618.534,371.396L618.534,380.607L616.846,380.607L616.846,369.709L627.745,369.709L627.745,371.396ZM627.745,299.396L618.674,299.396L618.674,308.607L616.846,308.607L616.846,297.709L627.745,297.709L627.745,299.396ZM627.745,385.81L618.534,385.81L618.534,395.021L616.846,395.021L616.846,384.123L627.745,384.123L627.745,385.81ZM627.745,328.224L618.534,328.224L618.534,337.435L616.846,337.435L616.846,326.466L627.745,326.466L627.745,328.224ZM613.33,342.638L604.12,342.638L604.12,351.849L602.432,351.849L602.432,340.881L613.33,340.881L613.33,342.638ZM613.33,357.052L604.12,357.052L604.12,366.263L602.432,366.263L602.432,355.295L613.33,355.295L613.33,357.052ZM613.33,371.396L604.12,371.396L604.12,380.607L602.432,380.607L602.432,369.709L613.33,369.709L613.33,371.396ZM613.33,299.396L604.12,299.396L604.12,308.607L602.432,308.607L602.432,297.709L613.33,297.709L613.33,299.396ZM613.33,385.81L604.12,385.81L604.12,395.021L602.432,395.021L602.432,384.123L613.33,384.123L613.33,385.81ZM613.33,328.224L604.12,328.224L604.12,337.435L602.432,337.435L602.432,326.466L613.33,326.466L613.33,328.224ZM598.987,385.81L589.776,385.81L589.776,395.021L588.018,395.021L588.018,384.123L598.987,384.123L598.987,385.81ZM598.987,328.224L589.776,328.224L589.776,337.435L588.018,337.435L588.018,326.466L598.987,326.466L598.987,328.224Z" style="fill-rule:nonzero;"/>
            <path d="M739.541,342.638L730.33,342.638L730.33,351.849L728.573,351.849L728.573,340.881L739.541,340.881L739.541,342.638ZM739.541,357.052L730.33,357.052L730.33,366.263L728.573,366.263L728.573,355.295L739.541,355.295L739.541,357.052ZM739.541,371.396L730.33,371.396L730.33,380.607L728.573,380.607L728.573,369.709L739.541,369.709L739.541,371.396ZM739.541,385.81L730.33,385.81L730.33,395.021L728.573,395.021L728.573,384.123L739.541,384.123L739.541,385.81ZM725.127,342.638L715.916,342.638L715.916,351.849L714.159,351.849L714.159,340.881L725.127,340.881L725.127,342.638ZM725.127,357.052L715.916,357.052L715.916,366.263L714.159,366.263L714.159,355.295L725.127,355.295L725.127,357.052ZM725.127,371.396L715.916,371.396L715.916,380.607L714.159,380.607L714.159,369.709L725.127,369.709L725.127,371.396ZM725.127,385.81L715.916,385.81L715.916,395.021L714.159,395.021L714.159,384.123L725.127,384.123L725.127,385.81ZM725.127,328.224L715.916,328.224L715.916,337.435L714.159,337.435L714.159,326.466L725.127,326.466L725.127,328.224ZM710.713,357.052L701.502,357.052L701.502,366.263L699.745,366.263L699.745,355.295L710.713,355.295L710.713,357.052ZM710.713,385.81L701.502,385.81L701.502,395.021L699.745,395.021L699.745,384.123L710.713,384.123L710.713,385.81ZM710.713,328.224L701.502,328.224L701.502,337.435L699.745,337.435L699.745,326.466L710.713,326.466L710.713,328.224ZM696.299,357.052L687.088,357.052L687.088,366.263L685.401,366.263L685.401,355.295L696.299,355.295L696.299,357.052ZM696.299,385.81L687.088,385.81L687.088,395.021L685.401,395.021L685.401,384.123L696.299,384.123L696.299,385.81ZM696.299,328.224L687.088,328.224L687.088,337.435L685.401,337.435L685.401,326.466L696.299,326.466L696.299,328.224ZM681.885,357.052L672.674,357.052L672.674,366.263L670.987,366.263L670.987,355.295L681.885,355.295L681.885,357.052ZM681.885,371.396L672.674,371.396L672.674,380.607L670.987,380.607L670.987,369.709L681.885,369.709L681.885,371.396ZM681.885,385.81L672.674,385.81L672.674,395.021L670.987,395.021L670.987,384.123L681.885,384.123L681.885,385.81ZM681.885,328.224L672.674,328.224L672.674,337.435L670.987,337.435L670.987,326.466L681.885,326.466L681.885,328.224ZM667.541,371.396L658.33,371.396L658.33,380.607L656.573,380.607L656.573,369.709L667.541,369.709L667.541,371.396Z" style="fill-rule:nonzero;"/>
        </g>
        <g transform="matrix(1,0,0,1,517.396,-60.3766)">
            <path d="M220.479,132.617L220.479,151.652C222.982,157.085 227.916,153.382 227.916,153.382C228.969,152.277 230.431,151.652 231.957,151.652C235.021,151.652 237.542,154.173 237.542,157.237C237.542,160.302 235.021,162.823 231.957,162.823C230.431,162.823 228.969,162.197 227.916,161.093C223.256,158.041 220.479,162.823 220.479,162.823L220.479,181.868L239.504,181.868C239.504,181.868 244.326,184.646 241.233,189.306C240.129,190.359 239.504,191.82 239.504,193.346C239.504,196.411 242.025,198.932 245.089,198.932C248.153,198.932 250.675,196.411 250.675,193.346C250.675,191.82 250.049,190.359 248.945,189.306C247.841,188.252 245.242,184.371 250.675,181.868L269.72,181.868L269.72,132.617L220.479,132.617Z" style="fill:url(#_Linear1);fill-rule:nonzero;"/>
        </g>
        <g transform="matrix(1,0,0,1,-171.936,-82.3117)">
            <path d="M220.479,181.868L220.479,231.12L269.72,231.12L269.72,212.075C269.72,212.075 272.498,207.252 277.157,210.345C278.211,211.449 279.672,212.075 281.198,212.075C284.263,212.075 286.784,209.553 286.784,206.489C286.784,203.425 284.263,200.904 281.198,200.904C279.672,200.904 278.211,201.529 277.157,202.633C276.104,203.737 272.223,206.337 269.72,200.904L269.72,181.868L250.695,181.868C245.262,184.371 248.966,189.306 248.966,189.306C250.07,190.359 250.695,191.82 250.695,193.346C250.695,196.411 248.174,198.932 245.11,198.932C242.046,198.932 239.524,196.411 239.524,193.346C239.524,191.82 240.15,190.359 241.254,189.306C244.306,184.646 239.524,181.868 239.524,181.868L220.479,181.868Z" style="fill:rgb(152,138,202);fill-rule:nonzero;"/>
        </g>
        <g transform="matrix(6.12323e-17,-1,1,6.12323e-17,-33.1834,471.815)">
            <path d="M220.479,181.868L220.479,231.12L269.72,231.12L269.72,212.075C269.72,212.075 272.498,207.252 277.157,210.345C278.211,211.449 279.672,212.075 281.198,212.075C284.263,212.075 286.784,209.553 286.784,206.489C286.784,203.425 284.263,200.904 281.198,200.904C279.672,200.904 278.211,201.529 277.157,202.633C276.104,203.737 272.223,206.337 269.72,200.904L269.72,181.868L250.695,181.868C245.262,184.371 248.966,189.306 248.966,189.306C250.07,190.359 250.695,191.82 250.695,193.346C250.695,196.411 248.174,198.932 245.11,198.932C242.046,198.932 239.524,196.411 239.524,193.346C239.524,191.82 240.15,190.359 241.254,189.306C244.306,184.646 239.524,181.868 239.524,181.868L220.479,181.868Z" style="fill:rgb(152,138,202);fill-rule:nonzero;"/>
        </g>
        <g transform="matrix(6.12323e-17,-1,1,6.12323e-17,-33.1834,572.563)">
            <path d="M220.479,181.868L220.479,231.12L269.72,231.12L269.72,212.075C269.72,212.075 272.498,207.252 277.157,210.345C278.211,211.449 279.672,212.075 281.198,212.075C284.263,212.075 286.784,209.553 286.784,206.489C286.784,203.425 284.263,200.904 281.198,200.904C279.672,200.904 278.211,201.529 277.157,202.633C276.104,203.737 272.223,206.337 269.72,200.904L269.72,181.868L250.695,181.868C245.262,184.371 248.966,189.306 248.966,189.306C250.07,190.359 250.695,191.82 250.695,193.346C250.695,196.411 248.174,198.932 245.11,198.932C242.046,198.932 239.524,196.411 239.524,193.346C239.524,191.82 240.15,190.359 241.254,189.306C244.306,184.646 239.524,181.868 239.524,181.868L220.479,181.868Z" style="fill:rgb(152,138,202);fill-rule:nonzero;"/>
        </g>
        <g transform="matrix(-1,-1.23165e-16,1.23165e-16,-1,472.289,484.701)">
            <path d="M237.612,157.248C237.602,160.311 235.079,162.827 232.016,162.827C230.492,162.827 229.032,162.204 227.977,161.104C226.922,160.003 223.043,157.4 220.54,162.833L220.54,181.868L201.504,181.868C196.072,179.366 199.775,174.431 199.775,174.431C200.879,173.378 201.504,171.916 201.504,170.39C201.504,167.326 198.983,164.805 195.919,164.805C192.855,164.805 190.334,167.326 190.334,170.39C190.334,171.916 190.959,173.378 192.063,174.431C195.115,179.091 190.334,181.868 190.334,181.868L171.339,181.868L171.339,132.617L190.191,132.617C195.624,135.119 191.921,140.054 191.921,140.054C190.817,141.107 190.191,142.569 190.191,144.095C190.191,147.159 192.712,149.68 195.777,149.68C198.841,149.68 201.362,147.159 201.362,144.095C201.362,142.569 200.737,141.107 199.632,140.054C196.58,135.394 201.362,132.617 201.362,132.617L220.58,132.617L220.58,151.662C220.58,151.662 223.358,156.485 228.018,153.392C229.072,152.291 230.532,151.669 232.057,151.669C235.12,151.669 237.643,154.184 237.652,157.248L237.612,157.248Z" style="fill:rgb(152,138,202);fill-rule:nonzero;"/>
        </g>
        <g transform="matrix(0.000799807,1,-1,0.000799807,328.773,-72.1107)">
            <path d="M237.612,157.248C237.602,160.311 235.079,162.827 232.016,162.827C230.492,162.827 229.032,162.204 227.977,161.104C226.922,160.003 223.043,157.4 220.54,162.833L220.54,181.868L201.504,181.868C196.072,179.366 199.775,174.431 199.775,174.431C200.879,173.378 201.504,171.916 201.504,170.39C201.504,167.326 198.983,164.805 195.919,164.805C192.855,164.805 190.334,167.326 190.334,170.39C190.334,171.916 190.959,173.378 192.063,174.431C195.115,179.091 190.334,181.868 190.334,181.868L171.339,181.868L171.339,132.617L190.191,132.617C195.624,135.119 191.921,140.054 191.921,140.054C190.817,141.107 190.191,142.569 190.191,144.095C190.191,147.159 192.712,149.68 195.777,149.68C198.841,149.68 201.362,147.159 201.362,144.095C201.362,142.569 200.737,141.107 199.632,140.054C196.58,135.394 201.362,132.617 201.362,132.617L220.58,132.617L220.58,151.662C220.58,151.662 223.358,156.485 228.018,153.392C229.072,152.291 230.532,151.669 232.057,151.669C235.12,151.669 237.643,154.184 237.652,157.248L237.612,157.248Z" style="fill:rgb(152,138,202);fill-rule:nonzero;"/>
        </g>
        <g transform="matrix(1,0,0,1,-73.623,-82.8198)">
            <path d="M237.612,157.248C237.602,160.311 235.079,162.827 232.016,162.827C230.492,162.827 229.032,162.204 227.977,161.104C226.922,160.003 223.043,157.4 220.54,162.833L220.54,181.868L201.504,181.868C196.072,179.366 199.775,174.431 199.775,174.431C200.879,173.378 201.504,171.916 201.504,170.39C201.504,167.326 198.983,164.805 195.919,164.805C192.855,164.805 190.334,167.326 190.334,170.39C190.334,171.916 190.959,173.378 192.063,174.431C195.115,179.091 190.334,181.868 190.334,181.868L171.339,181.868L171.339,132.617L190.191,132.617C195.624,135.119 191.921,140.054 191.921,140.054C190.817,141.107 190.191,142.569 190.191,144.095C190.191,147.159 192.712,149.68 195.777,149.68C198.841,149.68 201.362,147.159 201.362,144.095C201.362,142.569 200.737,141.107 199.632,140.054C196.58,135.394 201.362,132.617 201.362,132.617L220.58,132.617L220.58,151.662C220.58,151.662 223.358,156.485 228.018,153.392C229.072,152.291 230.532,151.669 232.057,151.669C235.12,151.669 237.643,154.184 237.652,157.248L237.612,157.248Z" style="fill:rgb(152,138,202);fill-rule:nonzero;"/>
        </g>
        <g transform="matrix(1,0,0,1,-171.92,-82.3117)">
            <path d="M318.962,181.868L318.962,231.12L269.72,231.12L269.72,212.075C269.72,212.075 272.498,207.252 277.157,210.345C278.211,211.449 279.672,212.075 281.198,212.075C284.263,212.075 286.784,209.553 286.784,206.489C286.784,203.425 284.263,200.904 281.198,200.904C279.672,200.904 278.211,201.529 277.157,202.633C276.104,203.737 272.223,206.337 269.72,200.904L269.72,181.868L288.756,181.868C294.189,179.366 290.485,174.431 290.485,174.431C289.381,173.378 288.756,171.916 288.756,170.39C288.756,167.326 291.277,164.805 294.341,164.805C297.405,164.805 299.927,167.326 299.927,170.39C299.927,171.916 299.301,173.378 298.197,174.431C295.145,179.091 299.927,181.868 299.927,181.868L318.962,181.868Z" style="fill:url(#_Linear2);fill-rule:nonzero;"/>
        </g>
        <g transform="matrix(0.0130957,0.999914,-0.999914,0.0130957,325.368,-172.745)">
            <path d="M318.962,181.868L318.962,231.12L269.72,231.12L269.72,212.075C269.72,212.075 272.498,207.252 277.157,210.345C278.211,211.449 279.672,212.075 281.198,212.075C284.263,212.075 286.784,209.553 286.784,206.489C286.784,203.425 284.263,200.904 281.198,200.904C279.672,200.904 278.211,201.529 277.157,202.633C276.104,203.737 272.223,206.337 269.72,200.904L269.72,181.868L288.756,181.868C294.189,179.366 290.485,174.431 290.485,174.431C289.381,173.378 288.756,171.916 288.756,170.39C288.756,167.326 291.277,164.805 294.341,164.805C297.405,164.805 299.927,167.326 299.927,170.39C299.927,171.916 299.301,173.378 298.197,174.431C295.145,179.091 299.927,181.868 299.927,181.868L318.962,181.868Z" style="fill:url(#_Linear3);fill-rule:nonzero;"/>
        </g>
        <g transform="matrix(1,0,0,1,-122.679,-131.786)">
            <path d="M318.962,181.868L318.962,231.12L269.72,231.12L269.72,212.075C269.72,212.075 272.498,207.252 277.157,210.345C278.211,211.449 279.672,212.075 281.198,212.075C284.263,212.075 286.784,209.553 286.784,206.489C286.784,203.425 284.263,200.904 281.198,200.904C279.672,200.904 278.211,201.529 277.157,202.633C276.104,203.737 272.223,206.337 269.72,200.904L269.72,181.868L288.756,181.868C294.189,179.366 290.485,174.431 290.485,174.431C289.381,173.378 288.756,171.916 288.756,170.39C288.756,167.326 291.277,164.805 294.341,164.805C297.405,164.805 299.927,167.326 299.927,170.39C299.927,171.916 299.301,173.378 298.197,174.431C295.145,179.091 299.927,181.868 299.927,181.868L318.962,181.868Z" style="fill:url(#_Linear4);fill-rule:nonzero;"/>
        </g>
        <g transform="matrix(0.000256296,1,-1,0.000256296,231.051,-170.433)">
            <path d="M318.962,181.868L318.962,231.12L269.72,231.12L269.72,212.075C269.72,212.075 272.498,207.252 277.157,210.345C278.211,211.449 279.672,212.075 281.198,212.075C284.263,212.075 286.784,209.553 286.784,206.489C286.784,203.425 284.263,200.904 281.198,200.904C279.672,200.904 278.211,201.529 277.157,202.633C276.104,203.737 272.223,206.337 269.72,200.904L269.72,181.868L288.756,181.868C294.189,179.366 290.485,174.431 290.485,174.431C289.381,173.378 288.756,171.916 288.756,170.39C288.756,167.326 291.277,164.805 294.341,164.805C297.405,164.805 299.927,167.326 299.927,170.39C299.927,171.916 299.301,173.378 298.197,174.431C295.145,179.091 299.927,181.868 299.927,181.868L318.962,181.868Z" style="fill:url(#_Linear5);fill-rule:nonzero;"/>
        </g>
        <g transform="matrix(0.000408766,-1,1,0.000408766,14.1398,418.214)">
            <path d="M318.962,181.868L318.962,231.12L269.72,231.12L269.72,212.075C269.72,212.075 272.498,207.252 277.157,210.345C278.211,211.449 279.672,212.075 281.198,212.075C284.263,212.075 286.784,209.553 286.784,206.489C286.784,203.425 284.263,200.904 281.198,200.904C279.672,200.904 278.211,201.529 277.157,202.633C276.104,203.737 272.223,206.337 269.72,200.904L269.72,181.868L288.756,181.868C294.189,179.366 290.485,174.431 290.485,174.431C289.381,173.378 288.756,171.916 288.756,170.39C288.756,167.326 291.277,164.805 294.341,164.805C297.405,164.805 299.927,167.326 299.927,170.39C299.927,171.916 299.301,173.378 298.197,174.431C295.145,179.091 299.927,181.868 299.927,181.868L318.962,181.868Z" style="fill:url(#_Linear6);fill-rule:nonzero;"/>
        </g>
        <g transform="matrix(0.000408766,-1,1,0.000408766,-33.6783,571.154)">
            <path d="M318.962,181.868L318.962,231.12L269.72,231.12L269.72,212.075C269.72,212.075 272.498,207.252 277.157,210.345C278.211,211.449 279.672,212.075 281.198,212.075C284.263,212.075 286.784,209.553 286.784,206.489C286.784,203.425 284.263,200.904 281.198,200.904C279.672,200.904 278.211,201.529 277.157,202.633C276.104,203.737 272.223,206.337 269.72,200.904L269.72,181.868L288.756,181.868C294.189,179.366 290.485,174.431 290.485,174.431C289.381,173.378 288.756,171.916 288.756,170.39C288.756,167.326 291.277,164.805 294.341,164.805C297.405,164.805 299.927,167.326 299.927,170.39C299.927,171.916 299.301,173.378 298.197,174.431C295.145,179.091 299.927,181.868 299.927,181.868L318.962,181.868Z" style="fill:url(#_Linear7);fill-rule:nonzero;"/>
        </g>
        <g transform="matrix(0.000408766,-1,1,0.000408766,-33.0045,469.699)">
            <path d="M318.962,181.868L318.962,231.12L269.72,231.12L269.72,212.075C269.72,212.075 272.498,207.252 277.157,210.345C278.211,211.449 279.672,212.075 281.198,212.075C284.263,212.075 286.784,209.553 286.784,206.489C286.784,203.425 284.263,200.904 281.198,200.904C279.672,200.904 278.211,201.529 277.157,202.633C276.104,203.737 272.223,206.337 269.72,200.904L269.72,181.868L288.756,181.868C294.189,179.366 290.485,174.431 290.485,174.431C289.381,173.378 288.756,171.916 288.756,170.39C288.756,167.326 291.277,164.805 294.341,164.805C297.405,164.805 299.927,167.326 299.927,170.39C299.927,171.916 299.301,173.378 298.197,174.431C295.145,179.091 299.927,181.868 299.927,181.868L318.962,181.868Z" style="fill:url(#_Linear8);fill-rule:nonzero;"/>
        </g>
        <g transform="matrix(6.12032e-17,1,-1,6.12032e-17,329.209,-66.6953)">
            <path d="M318.962,181.868L318.962,231.12L269.72,231.12L269.72,212.075C269.72,212.075 272.498,207.252 277.157,210.345C278.211,211.449 279.672,212.075 281.198,212.075C284.263,212.075 286.784,209.553 286.784,206.489C286.784,203.425 284.263,200.904 281.198,200.904C279.672,200.904 278.211,201.529 277.157,202.633C276.104,203.737 272.223,206.337 269.72,200.904L269.72,181.868L288.756,181.868C294.189,179.366 290.485,174.431 290.485,174.431C289.381,173.378 288.756,171.916 288.756,170.39C288.756,167.326 291.277,164.805 294.341,164.805C297.405,164.805 299.927,167.326 299.927,170.39C299.927,171.916 299.301,173.378 298.197,174.431C295.145,179.091 299.927,181.868 299.927,181.868L318.962,181.868Z" style="fill:url(#_Linear9);fill-rule:nonzero;"/>
        </g>
        <g transform="matrix(0.000408766,-1,1,0.000408766,18.7924,621.296)">
            <path d="M318.962,181.868L318.962,231.12L269.72,231.12L269.72,212.075C269.72,212.075 272.498,207.252 277.157,210.345C278.211,211.449 279.672,212.075 281.198,212.075C284.263,212.075 286.784,209.553 286.784,206.489C286.784,203.425 284.263,200.904 281.198,200.904C279.672,200.904 278.211,201.529 277.157,202.633C276.104,203.737 272.223,206.337 269.72,200.904L269.72,181.868L288.756,181.868C294.189,179.366 290.485,174.431 290.485,174.431C289.381,173.378 288.756,171.916 288.756,170.39C288.756,167.326 291.277,164.805 294.341,164.805C297.405,164.805 299.927,167.326 299.927,170.39C299.927,171.916 299.301,173.378 298.197,174.431C295.145,179.091 299.927,181.868 299.927,181.868L318.962,181.868Z" style="fill:url(#_Linear10);fill-rule:nonzero;"/>
        </g>
        <g id="Adding-a-part" transform="matrix(1,0,0,1,-265,28.1231)">
            <g transform="matrix(1,0,0,1,231.412,-88.8017)">
                <path d="M326.094,149.739C325.586,150.169 324.976,150.463 324.324,150.594C323.724,150.619 323.127,150.511 322.574,150.278L314.109,147.46C312.79,148.488 312.485,150.385 313.417,151.774C314.247,152.683 315.326,153.327 316.52,153.626L322.33,155.711C325.043,156.979 328.188,156.96 330.886,155.66C332.615,155.081 334.518,154.358 335.352,152.73C336.186,151.103 335.576,148.946 335.82,147.043C336.141,145.835 336.369,144.604 336.502,143.36C336.502,142.292 335.627,140.685 334.355,140.908C333.256,141.102 332.524,143.014 331.944,143.818C330.309,146.08 328.336,148.077 326.094,149.739Z" style="fill:white;fill-rule:nonzero;"/>
            </g>
            <g transform="matrix(1,0,0,1,231.412,-88.8017)">
                <path d="M313.051,146.982C312.963,146.753 312.828,146.545 312.654,146.372C312.48,146.194 312.214,146.138 311.983,146.229C311.756,146.369 311.629,146.626 311.657,146.891C311.674,146.983 311.652,147.079 311.596,147.155C311.535,147.216 311.423,147.155 311.332,147.155C310.375,146.972 309.399,146.83 308.422,146.728C308.384,146.72 308.345,146.716 308.306,146.716C307.982,146.716 307.716,146.983 307.716,147.306C307.716,147.384 307.731,147.46 307.761,147.532C307.867,147.856 308.028,148.158 308.239,148.427C308.737,149.241 308.92,150.309 309.714,150.838C310.199,151.122 310.763,151.24 311.321,151.174C311.881,151.174 312.43,151.042 312.99,151.072C313.36,151.151 313.745,151.108 314.089,150.95C314.349,150.755 314.491,150.44 314.465,150.116C314.406,149.613 314.228,149.132 313.946,148.712C313.631,148.162 313.336,147.572 313.051,146.982Z" style="fill:rgb(253,185,169);fill-rule:nonzero;"/>
            </g>
            <g transform="matrix(1,0,0,1,231.412,-88.8017)">
                <path d="M336.654,210.701C333.419,209.969 334.05,214.557 333.195,216.266C332.654,217.144 331.966,217.922 331.16,218.566C330.368,219.226 329.849,220.158 329.706,221.18C329.687,221.371 329.726,221.562 329.818,221.73C329.982,221.931 330.213,222.068 330.469,222.116C332.318,222.656 334.306,222.459 336.013,221.567C336.813,221.19 337.478,220.575 337.916,219.807C338.27,218.979 338.437,218.082 338.404,217.182C338.506,215.269 339.361,211.301 336.654,210.701Z" style="fill:rgb(253,185,169);fill-rule:nonzero;"/>
            </g>
            <g transform="matrix(1,0,0,1,231.412,-88.8017)">
                <path d="M333.785,220.163C333.785,220.163 324.568,220.56 328.475,223.449C332.381,226.338 338.211,222.747 338.781,222.086C339.35,221.424 338.882,220.295 338.882,220.295L333.785,220.163Z" style="fill:rgb(152,138,202);fill-rule:nonzero;"/>
            </g>
            <g transform="matrix(1,0,0,1,231.412,-88.8017)">
                <path d="M338.374,221.435C337.56,222.452 333.226,223.785 331.303,223.642C329.38,223.5 327.661,222.625 327.854,221.374C328.047,220.122 331.425,217.243 332.066,217.253C332.707,217.263 333.205,218.739 334.487,219.044C335.651,219.237 336.835,218.813 337.611,217.925C337.846,217.611 338.267,217.497 338.628,217.65C339.172,218.875 339.077,220.293 338.374,221.435Z" style="fill:white;fill-rule:nonzero;"/>
            </g>
            <g transform="matrix(1,0,0,1,231.412,-88.8017)">
                <path d="M347.774,212.512C344.539,211.759 345.17,216.358 344.315,218.057C343.775,218.938 343.086,219.719 342.281,220.366C341.488,221.023 340.969,221.952 340.826,222.971C340.809,223.164 340.848,223.358 340.938,223.53C341.105,223.729 341.335,223.865 341.589,223.917C343.438,224.453 345.425,224.256 347.133,223.368C347.932,222.983 348.595,222.366 349.036,221.597C349.389,220.772 349.556,219.88 349.524,218.983C349.626,217.05 350.481,213.092 347.774,212.512Z" style="fill:rgb(253,185,169);fill-rule:nonzero;"/>
            </g>
            <g transform="matrix(1,0,0,1,231.412,-88.8017)">
                <path d="M344.905,221.933C344.905,221.933 335.688,222.32 339.595,225.23C343.501,228.139 349.331,224.517 349.901,223.856C350.47,223.195 350.002,222.065 350.002,222.065L344.905,221.933Z" style="fill:rgb(152,138,202);fill-rule:nonzero;"/>
            </g>
            <g transform="matrix(1,0,0,1,231.412,-88.8017)">
                <path d="M349.494,223.185C348.68,224.202 344.346,225.545 342.423,225.402C340.5,225.26 338.781,224.385 338.974,223.134C339.167,221.882 342.545,219.003 343.186,219.064C343.827,219.125 344.325,220.55 345.607,220.845C346.769,221.042 347.954,220.621 348.731,219.736C348.963,219.419 349.388,219.304 349.748,219.461C350.271,220.669 350.176,222.059 349.494,223.185Z" style="fill:white;fill-rule:nonzero;"/>
            </g>
            <g transform="matrix(1,0,0,1,231.412,-88.8017)">
                <path d="M339.422,170.667L343.756,216.287L350.002,215.513C352.475,204.383 351.864,171.084 351.864,171.084L339.422,170.667Z" style="fill:rgb(71,63,71);fill-rule:nonzero;"/>
            </g>
            <g transform="matrix(1,0,0,1,231.412,-88.8017)">
                <path d="M343.756,169.436L339.422,215.045L333.155,214.272C329.584,185.419 332.534,167.472 332.534,167.472L343.756,169.436Z" style="fill:rgb(71,63,71);fill-rule:nonzero;"/>
            </g>
            <g transform="matrix(1,0,0,1,231.412,-88.8017)">
                <path d="M333.104,152.944C333.022,152.11 332.798,151.276 332.717,150.421C332.513,148.702 332.544,146.963 332.809,145.253C333.103,143.427 333.654,141.653 334.447,139.983C335.159,138.538 336.481,137.948 337.926,137.195C339.155,136.534 340.486,136.084 341.863,135.862C342.833,135.774 343.81,135.828 344.763,136.025C347.713,136.584 351.59,138.06 353.604,140.43C355.12,142.17 355.293,144.673 355.344,146.982C355.405,150.167 355.344,153.351 355.14,156.535C355.14,156.993 355.089,157.451 355.049,157.919C354.885,161.462 354.349,164.977 353.451,168.408C353.283,169.48 352.702,170.444 351.834,171.094C349.524,172.437 346.004,171.695 343.512,171.349C340.205,170.881 336.817,170.392 333.887,168.785C333.279,168.524 332.787,168.05 332.503,167.452C332.357,166.699 332.454,165.919 332.778,165.224C333.795,161.968 333.002,158.54 333.002,155.213C333.002,154.613 333.073,154.002 333.073,153.392C333.104,153.249 333.104,153.097 333.104,152.944Z" style="fill:white;fill-rule:nonzero;"/>
            </g>
            <g transform="matrix(1,0,0,1,231.412,-88.8017)">
                <path d="M343.481,158.835C344.265,159.323 345.13,159.667 346.035,159.852C348.731,160.636 351.498,161.053 354.174,161.887C354.356,161.922 354.525,162.007 354.662,162.131C354.772,162.3 354.822,162.5 354.805,162.701C354.817,163.484 354.7,164.265 354.459,165.01C354.38,165.382 354.166,165.713 353.858,165.936C353.467,166.078 353.039,166.078 352.648,165.936L342.565,163.8C341.844,163.615 341.102,163.526 340.358,163.535C339.476,163.638 338.611,163.853 337.784,164.176C336.237,164.671 334.646,165.012 333.032,165.193C333.118,163.269 333.353,161.354 333.734,159.466C333.882,158.907 334.094,158.368 334.365,157.858C334.69,157.354 335.073,156.89 335.505,156.474C337.133,154.775 338.262,152.649 339.91,150.95C340.775,150.055 341.853,149.485 342.616,148.529C342.921,148.142 345.567,144.815 345.312,144.459C345.821,145.09 347.083,144.459 347.54,145.11C347.825,145.517 347.54,146.066 347.276,146.484C345.327,149.748 343.966,153.329 343.257,157.064C343.054,157.929 342.749,158.234 343.481,158.835Z" style="fill:url(#_Linear11);fill-rule:nonzero;"/>
            </g>
            <g transform="matrix(1,0,0,1,231.412,-88.8017)">
                <path d="M335.261,117.071C336.858,118.097 337.827,119.871 337.827,121.77C337.827,124.418 335.944,126.72 333.348,127.245C330.752,127.769 327.569,129.422 330.815,134.448L346.869,144.673L336.695,160.727C331.669,163.973 329.492,158.194 329.492,158.194C328.972,155.599 326.672,153.714 324.025,153.714C320.967,153.714 318.45,156.231 318.45,159.29C318.45,162.348 320.967,164.865 324.025,164.865C324.472,164.865 324.917,164.811 325.351,164.705C330.947,164.593 330.703,170.158 330.703,170.158L320.529,186.213L278.979,159.761L289.102,143.849C294.128,140.613 296.305,146.382 296.305,146.382C296.818,148.99 299.126,150.889 301.785,150.889C304.849,150.889 307.371,148.367 307.371,145.303C307.371,142.239 304.849,139.718 301.785,139.718C301.334,139.718 300.884,139.772 300.445,139.881C294.85,139.993 295.104,134.428 295.104,134.428L305.421,118.21L321.485,128.445C321.485,128.445 327.05,128.689 326.938,123.094C326.58,121.61 326.837,120.042 327.65,118.75C329.306,116.241 332.703,115.492 335.261,117.071Z" style="fill:rgb(152,138,202);fill-rule:nonzero;"/>
            </g>
            <g transform="matrix(1,0,0,1,231.412,-88.8017)">
                <path d="M360.034,149.963C360.451,150.689 360.792,151.456 361.051,152.252C361.38,153.647 361.415,155.096 361.153,156.505C361.03,157.886 360.534,159.209 359.719,160.33C357.999,162.365 354.927,162.558 352.261,162.304C349.235,162.025 346.248,161.425 343.349,160.513C343.079,160.453 342.826,160.335 342.606,160.168C342.371,159.902 342.21,159.579 342.138,159.232C341.916,158.388 341.769,157.527 341.701,156.658C344.753,155.783 348.13,156.495 351.315,156.027C352.061,156.024 352.672,155.409 352.672,154.663C352.672,154.511 352.647,154.36 352.597,154.216C352.444,152.425 351.335,150.858 350.816,149.129C350.308,147.465 350.351,145.68 350.938,144.042C351.293,142.874 352.141,141.918 353.258,141.427C354.53,141.01 355.018,142.007 355.72,142.943C357.336,145.169 358.778,147.516 360.034,149.963Z" style="fill:white;fill-rule:nonzero;"/>
            </g>
            <g transform="matrix(1,0,0,1,231.412,-88.8017)">
                <path d="M340.429,155.518C340.309,155.42 340.165,155.357 340.012,155.335C339.774,155.36 339.567,155.512 339.473,155.732C339.383,155.951 339.281,156.165 339.167,156.373C338.858,156.716 338.408,156.9 337.946,156.871C337.49,156.825 337.03,156.825 336.573,156.871C336.404,156.906 336.246,156.983 336.115,157.095C335.99,157.217 335.902,157.373 335.861,157.543C335.703,158.244 335.91,158.979 336.41,159.496C336.907,160 337.518,160.376 338.191,160.595C338.877,160.898 339.639,160.99 340.378,160.859C340.784,160.741 341.171,160.567 341.528,160.34L343.013,159.516C343.137,159.458 343.248,159.375 343.339,159.272C343.664,158.865 343.217,157.644 342.921,157.237C342.179,156.546 341.339,155.966 340.429,155.518Z" style="fill:rgb(253,185,169);fill-rule:nonzero;"/>
            </g>
            <g transform="matrix(1,0,0,1,231.412,-88.8017)">
                <path d="M339.432,131.243C339.432,130.368 339.503,129.483 339.595,128.628C339.686,127.774 339.798,127.102 339.941,126.35C339.96,125.899 340.176,125.478 340.531,125.2C341.706,124.498 343.058,124.145 344.427,124.182C345.474,124.109 346.504,124.478 347.266,125.2C347.725,125.784 347.998,126.493 348.049,127.235C348.097,129.16 347.905,131.084 347.479,132.963C347.264,134.438 347.186,135.929 347.245,137.419C346.524,137.898 345.696,138.192 344.834,138.273C344.433,138.269 344.035,138.204 343.654,138.08C343.442,138.032 343.254,137.909 343.125,137.734C343.079,137.571 343.079,137.399 343.125,137.236C343.135,137.08 343.135,136.923 343.125,136.768C343.184,135.896 343.167,135.021 343.074,134.153C343.078,134.077 343.048,134.002 342.993,133.949C342.937,133.929 342.876,133.929 342.82,133.949L342.576,133.949C342.143,133.995 341.706,133.995 341.273,133.949C340.753,133.898 340.268,133.66 339.91,133.278C339.497,132.686 339.326,131.957 339.432,131.243Z" style="fill:rgb(253,185,169);fill-rule:nonzero;"/>
            </g>
            <g transform="matrix(1,0,0,1,231.412,-88.8017)">
                <path d="M341.243,125.668C340.938,125.668 340.663,125.831 340.398,125.668C340.122,125.438 339.878,125.171 339.676,124.874C339.19,124.23 338.952,123.431 339.005,122.626C339.024,122.261 339.143,121.909 339.35,121.608C339.576,121.335 339.866,121.122 340.195,120.988C340.826,120.677 341.528,120.54 342.23,120.591C343.246,120.723 344.194,121.176 344.936,121.883C345.092,122.046 345.284,122.171 345.495,122.249C345.69,122.29 345.891,122.29 346.086,122.249C347.373,122.141 348.653,122.535 349.657,123.348C350.226,123.847 350.674,124.488 351.264,124.925C351.854,125.363 352.434,125.525 352.739,126.085C352.999,126.615 352.932,127.249 352.566,127.713C352.188,128.159 351.666,128.461 351.091,128.567C351.149,128.719 351.179,128.88 351.179,129.043C351.179,129.604 350.825,130.107 350.298,130.297C350.063,130.333 349.835,130.408 349.626,130.521C349.484,130.633 349.423,130.806 349.28,130.918C348.944,131.192 348.507,131.284 348.364,131.752C348.322,131.949 348.305,132.151 348.314,132.352C348.289,132.651 348.168,132.933 347.968,133.156C347.835,133.298 347.601,133.654 347.408,133.695C347.215,133.736 347.042,133.502 346.981,133.298C346.742,132.436 346.803,131.517 347.154,130.694C347.406,130.296 347.553,129.841 347.581,129.371C347.581,128.903 346.91,128.537 346.564,128.812C346.218,129.086 346.197,129.748 345.831,129.615C346.299,128.262 345.698,126.755 344.427,126.095C343.742,125.886 343.028,125.786 342.311,125.8C341.976,125.73 341.636,125.692 341.294,125.688L341.243,125.668Z" style="fill:rgb(71,63,71);fill-rule:nonzero;"/>
            </g>
            <g transform="matrix(1,0,0,1,231.412,-88.8017)">
                <path d="M342.576,133.97C343.586,133.777 344.574,133.484 345.526,133.095C345.702,134.741 344.69,136.299 343.115,136.808C343.191,135.938 343.191,135.063 343.115,134.194C343.114,134.118 343.085,134.045 343.033,133.99C342.978,133.97 342.916,133.97 342.86,133.99L342.626,133.99L342.576,133.97Z" style="fill:rgb(222,159,147);fill-rule:nonzero;"/>
            </g>
            <g transform="matrix(1,0,0,1,231.412,-88.8017)">
                <path d="M310.721,141.285C311.034,141.733 311.113,142.305 310.935,142.821C310.758,143.33 310.501,143.808 310.172,144.235L308.574,146.596C308.157,147.206 307.557,147.898 306.855,147.837C305.105,147.715 304.332,143.177 304.983,141.834C305.736,140.155 309.571,139.85 310.721,141.285Z" style="fill:rgb(253,185,169);fill-rule:nonzero;"/>
            </g>
        </g>
        <g id="On-ladder" transform="matrix(1,0,0,1,-554,113)">
            <g transform="matrix(1,0,0,1,455.412,-29.0612)">
                <path d="M172.112,71.278C170.788,70.818 169.342,70.855 168.043,71.38C166.348,71.984 164.987,73.279 164.299,74.941C164.274,75.335 163.942,75.647 163.547,75.647C163.499,75.647 163.451,75.642 163.403,75.633C161.923,75.629 160.493,76.177 159.395,77.169C158.113,78.339 158.113,79.773 157.94,81.452C157.515,81.238 157.012,81.238 156.587,81.452C156.168,81.659 155.786,81.934 155.457,82.266C154.896,82.717 154.447,83.291 154.145,83.945C153.738,85.054 154.196,86.275 154.216,87.455C154.231,87.562 154.197,87.67 154.125,87.75C154.04,87.786 153.945,87.786 153.86,87.75C153.545,87.689 153.26,87.526 152.944,87.495C152.186,87.503 151.534,88.052 151.398,88.798C151.278,89.526 151.316,90.272 151.51,90.985C151.699,91.698 151.678,92.451 151.449,93.152C151.205,93.613 150.885,94.029 150.503,94.383C149.4,95.411 148.681,96.787 148.468,98.28C148.408,99.001 148.603,99.721 149.017,100.315C149.45,100.91 150.166,101.235 150.9,101.169C152.588,100.945 153.178,98.575 154.786,98.015C156.393,97.456 158.194,95.563 159.232,94.068C160.066,92.867 160.88,91.473 162.284,91.016C162.746,90.917 163.192,90.753 163.607,90.527C163.883,90.312 164.111,90.042 164.278,89.734C164.86,88.876 165.309,87.937 165.611,86.946C166.12,84.993 165.611,82.795 166.557,80.994C167.103,79.95 168.07,79.187 169.213,78.898C169.691,78.776 170.23,78.746 170.667,78.614C171.221,78.454 171.743,78.203 172.214,77.871C173.466,77.151 174.333,75.907 174.574,74.483C174.666,73.049 173.374,71.767 172.112,71.278Z" style="fill:rgb(255,104,28);fill-rule:nonzero;"/>
            </g>
            <g transform="matrix(1,0,0,1,455.412,-29.0612)">
                <path d="M176.273,73.689C177.319,74.093 177.922,75.208 177.687,76.304C177.513,76.735 177.254,77.126 176.924,77.454L175.083,79.489L174.32,76.66C174.241,76.13 173.978,75.643 173.577,75.287C173.045,74.982 172.39,74.982 171.858,75.287C171.319,75.561 170.84,75.989 170.362,76.304C170.23,76.386 170.047,76.477 169.904,76.396C169.762,76.314 169.742,76.019 169.813,75.816C170.688,73.394 174.035,72.723 176.273,73.689Z" style="fill:rgb(255,104,28);fill-rule:nonzero;"/>
            </g>
            <g transform="matrix(1,0,0,1,455.412,-29.0612)">
                <path d="M177.525,150.228C177.58,151.18 177.897,152.099 178.44,152.883C179.264,153.9 180.638,154.409 181.777,155.152C182.015,155.272 182.186,155.492 182.245,155.752C182.232,156.005 182.067,156.226 181.828,156.312C181.587,156.38 181.334,156.397 181.085,156.362C179.923,156.18 178.751,156.068 177.575,156.027C176.985,156.027 176.304,156.088 175.927,155.63C175.685,155.242 175.601,154.776 175.693,154.328C175.797,152.645 175.66,150.956 175.286,149.312C175.162,148.911 175.117,148.489 175.154,148.071C175.258,147.543 175.725,147.159 176.262,147.159C176.531,147.159 176.791,147.255 176.996,147.43C177.667,148.01 177.443,149.444 177.525,150.228Z" style="fill:rgb(252,189,186);fill-rule:nonzero;"/>
            </g>
            <g transform="matrix(1,0,0,1,455.412,-29.0612)">
                <path d="M158.703,156.525C158.565,157.469 158.684,158.432 159.049,159.313C159.649,160.524 160.9,161.246 161.867,162.202C162.079,162.364 162.204,162.617 162.203,162.884C162.141,163.129 161.934,163.311 161.684,163.342C161.436,163.367 161.185,163.336 160.951,163.25C159.846,162.847 158.718,162.507 157.574,162.233C156.994,162.131 156.312,162.029 156.037,161.521C155.871,161.096 155.871,160.623 156.037,160.198C156.479,158.567 156.685,156.882 156.648,155.192C156.607,154.775 156.648,154.353 156.77,153.951C156.946,153.533 157.357,153.26 157.811,153.26C158.159,153.26 158.489,153.421 158.703,153.697C159.283,154.379 158.774,155.742 158.703,156.525Z" style="fill:rgb(252,189,186);fill-rule:nonzero;"/>
            </g>
            <g transform="matrix(1,0,0,1,455.412,-29.0612)">
                <path d="M155,110.743C155,110.743 164.705,125.149 171.064,129.453C170.942,130.893 170.973,132.342 171.156,133.776C171.481,136.106 172.611,138.151 172.977,140.44L174.198,148.142C174.249,148.488 174.35,148.905 174.686,149.027C174.888,149.092 175.105,149.092 175.307,149.027L177.993,148.295C177.831,143.667 177.93,139.034 178.288,134.417C178.508,132.55 178.556,130.667 178.43,128.791C177.982,124.722 174.645,121.09 172.326,117.824C170.932,115.85 169.436,112.9 167.483,111.404C165.855,110.163 163.556,110.753 161.511,110.956C159.977,111.103 158.43,110.993 156.933,110.631C156.311,110.34 155.583,110.382 155,110.743Z" style="fill:rgb(71,63,71);fill-rule:nonzero;"/>
            </g>
            <g transform="matrix(1,0,0,1,455.412,-29.0612)">
                <path d="M151.306,110.651C151.306,110.651 155.081,127.611 159.446,133.939C158.811,135.242 158.31,136.605 157.95,138.009C157.709,139.158 157.57,140.325 157.533,141.498L156.658,155.66C158.01,155.731 159.365,155.559 160.656,155.152L165.621,142.668C166.569,140.68 167.129,138.529 167.269,136.33C167.269,132.077 163.2,116.552 162.722,115.769C161.653,114.009 159.303,113.734 157.329,113.164C155.847,112.745 154.447,112.078 153.189,111.19C152.568,110.804 152.008,110.427 151.306,110.651Z" style="fill:rgb(71,63,71);fill-rule:nonzero;"/>
            </g>
            <g transform="matrix(1,0,0,1,455.412,-29.0612)">
                <path d="M186.152,97.445C188.22,98.4 190.516,98.752 192.775,98.463C193.438,98.28 194.133,98.246 194.81,98.361C194.515,98.778 194.23,99.379 194.647,99.735C194.775,99.818 194.922,99.867 195.075,99.877C195.623,99.948 196.181,99.888 196.702,99.704C196.949,99.582 197.221,99.523 197.496,99.531C197.997,99.656 198.308,100.169 198.188,100.671C198.044,101.155 197.724,101.568 197.292,101.83C195.872,102.771 194.047,102.873 192.531,102.095C192.104,101.861 191.707,101.566 191.27,101.332C190.428,100.948 189.538,100.681 188.624,100.538C185.95,99.985 183.321,99.23 180.76,98.28C179.976,98.093 179.303,97.593 178.898,96.896C178.379,95.614 179.336,93.468 180.862,94.302C182.632,95.329 184.229,96.652 186.152,97.445Z" style="fill:rgb(252,189,186);fill-rule:nonzero;"/>
            </g>
            <g transform="matrix(1,0,0,1,455.412,-29.0612)">
                <path d="M173.516,90.141C176.537,92.116 179.907,93.497 183.446,94.21C183.598,94.21 183.782,94.312 183.822,94.465C183.839,94.568 183.813,94.675 183.751,94.76C183.028,96.214 182.115,97.566 181.035,98.778C180.919,98.932 180.769,99.057 180.597,99.145C180.256,99.245 179.888,99.2 179.58,99.022C177.294,98.107 175.056,97.089 172.865,95.97C170.915,95.115 169.178,93.84 167.778,92.236C167.08,91.404 166.666,90.37 166.598,89.286C166.598,88.086 167.697,85.929 169.213,86.519C169.894,86.783 170.494,87.628 171.013,88.106C171.805,88.835 172.641,89.514 173.516,90.141Z" style="fill:rgb(152,138,202);fill-rule:nonzero;"/>
            </g>
            <g transform="matrix(1,0,0,1,455.412,-29.0612)">
                <path d="M173.516,90.141C176.537,92.116 179.907,93.497 183.446,94.21C183.598,94.21 183.782,94.312 183.822,94.465C183.839,94.568 183.813,94.675 183.751,94.76C183.028,96.214 182.115,97.566 181.035,98.778C180.919,98.932 180.769,99.057 180.597,99.145C180.256,99.245 179.888,99.2 179.58,99.022C177.294,98.107 175.056,97.089 172.865,95.97C170.915,95.115 169.178,93.84 167.778,92.236C167.08,91.404 166.666,90.37 166.598,89.286C166.598,88.086 167.697,85.929 169.213,86.519C169.894,86.783 170.494,87.628 171.013,88.106C171.805,88.835 172.641,89.514 173.516,90.141Z" style="fill:url(#_Linear12);fill-rule:nonzero;"/>
            </g>
            <g transform="matrix(1,0,0,1,455.412,-29.0612)">
                <path d="M216.104,84.077C216.714,84.847 217.046,85.8 217.046,86.782C217.046,89.171 215.081,91.137 212.692,91.137C212.472,91.137 212.252,91.12 212.034,91.087C211.817,91.054 207.222,91.199 208.311,95.736L217.467,107.396L205.808,116.552C201.27,117.641 201.159,112.828 201.159,112.828C201.188,112.622 201.203,112.414 201.203,112.206C201.203,109.812 199.233,107.841 196.839,107.841C194.444,107.841 192.474,109.812 192.474,112.206C192.474,114.449 194.204,116.346 196.438,116.552C200.579,117.915 198.971,121.944 198.971,121.944L187.312,131.101L163.617,101.017L175.164,91.86C179.702,90.771 179.814,95.584 179.814,95.584C179.781,95.799 179.765,96.017 179.765,96.236C179.765,98.624 181.73,100.59 184.119,100.59C186.508,100.59 188.473,98.624 188.473,96.236C188.473,95.262 188.147,94.315 187.546,93.549C186.796,92.607 185.693,92.011 184.494,91.901C180.394,90.548 182.001,86.478 182.001,86.478L193.772,77.189L202.929,88.859C202.929,88.859 206.998,90.466 208.321,86.325C208.544,84.107 210.434,82.398 212.664,82.398C214.007,82.398 215.277,83.018 216.104,84.077Z" style="fill:rgb(152,138,202);fill-rule:nonzero;"/>
            </g>
            <g transform="matrix(1,0,0,1,455.412,-29.0612)">
                <path d="M216.104,84.077C216.714,84.847 217.046,85.8 217.046,86.782C217.046,89.171 215.081,91.137 212.692,91.137C212.472,91.137 212.252,91.12 212.034,91.087C211.817,91.054 207.222,91.199 208.311,95.736L217.467,107.396L205.808,116.552C201.27,117.641 201.159,112.828 201.159,112.828C201.188,112.622 201.203,112.414 201.203,112.206C201.203,109.812 199.233,107.841 196.839,107.841C194.444,107.841 192.474,109.812 192.474,112.206C192.474,114.449 194.204,116.346 196.438,116.552C200.579,117.915 198.971,121.944 198.971,121.944L187.312,131.101L163.617,101.017L175.164,91.86C179.702,90.771 179.814,95.584 179.814,95.584C179.781,95.799 179.765,96.017 179.765,96.236C179.765,98.624 181.73,100.59 184.119,100.59C186.508,100.59 188.473,98.624 188.473,96.236C188.473,95.262 188.147,94.315 187.546,93.549C186.796,92.607 185.693,92.011 184.494,91.901C180.394,90.548 182.001,86.478 182.001,86.478L193.772,77.189L202.929,88.859C202.929,88.859 206.998,90.466 208.321,86.325C208.544,84.107 210.434,82.398 212.664,82.398C214.007,82.398 215.277,83.018 216.104,84.077Z" style="fill:url(#_Linear13);fill-rule:nonzero;"/>
            </g>
            <g transform="matrix(1,0,0,1,455.412,-29.0612)">
                <path d="M177.575,110.61C180.068,112.645 182.662,114.833 185.715,115.362C186.9,115.627 188.145,115.403 189.164,114.741C189.518,114.53 189.724,114.135 189.693,113.724C189.581,113.225 188.97,113.052 188.472,112.961C186.14,112.642 183.901,111.838 181.899,110.6C181.157,110.075 180.453,109.497 179.793,108.871L174.839,104.455C174.716,104.306 174.533,104.22 174.34,104.221C174.137,104.221 174.015,104.455 173.923,104.638C173.616,105.263 173.384,105.922 173.231,106.602C173.079,107.345 173.231,107.446 173.872,107.874C175.154,108.742 176.389,109.654 177.575,110.61Z" style="fill:url(#_Linear14);fill-rule:nonzero;"/>
            </g>
            <g transform="matrix(1,0,0,1,455.412,-29.0612)">
                <path d="M179.875,106.887C181.599,108.395 183.716,109.383 185.979,109.736C186.652,109.745 187.316,109.901 187.922,110.193C187.505,110.509 187.058,111.048 187.373,111.465C187.474,111.581 187.604,111.669 187.749,111.719C188.256,111.936 188.806,112.033 189.357,112.004C189.629,111.963 189.908,111.984 190.171,112.065C190.458,112.233 190.635,112.541 190.635,112.874C190.635,113.04 190.591,113.204 190.506,113.347C190.241,113.778 189.817,114.089 189.326,114.212C187.701,114.725 185.92,114.31 184.687,113.134C184.331,112.788 184.036,112.391 183.67,112.055C182.97,111.451 182.189,110.948 181.35,110.56C178.937,109.278 176.624,107.815 174.432,106.185C173.733,105.788 173.225,105.123 173.028,104.343C172.885,102.96 174.401,101.159 175.642,102.4C177.087,103.865 178.257,105.544 179.875,106.887Z" style="fill:rgb(252,189,186);fill-rule:nonzero;"/>
            </g>
            <g transform="matrix(1,0,0,1,455.412,-29.0612)">
                <path d="M151.306,112.828C151.489,113.047 151.718,113.221 151.978,113.337C153.002,113.921 154.066,114.431 155.162,114.863C158.011,115.883 161.131,115.858 163.963,114.792C165.096,114.384 166.16,113.804 167.117,113.073C167.48,112.825 167.785,112.503 168.012,112.126C168.282,111.513 168.367,110.834 168.256,110.173C168.002,106.744 167.625,103.204 168.256,99.877C168.459,98.734 168.801,97.62 169.274,96.56C170.097,95.114 170.779,93.591 171.308,92.013C171.675,90.051 171.157,88.023 169.894,86.478C168.572,84.789 166.15,83.294 164.014,84.057C161.546,84.986 159.405,86.621 157.858,88.757C156.172,91.149 154.836,93.77 153.891,96.54C153.484,97.629 153.087,98.717 152.772,99.836C152.098,102.544 151.662,105.304 151.469,108.087C151.357,109.247 151.256,110.407 151.134,111.567C151.038,111.994 151.099,112.443 151.306,112.828Z" style="fill:rgb(152,138,202);fill-rule:nonzero;"/>
            </g>
            <g transform="matrix(1,0,0,1,455.412,-29.0612)">
                <path d="M163.963,114.792C165.096,114.384 166.16,113.804 167.117,113.073C167.48,112.825 167.785,112.503 168.012,112.126C168.282,111.513 168.367,110.834 168.256,110.173C168.002,106.744 167.625,103.204 168.256,99.877C167.849,99.47 167.391,99.104 166.944,98.738C165.926,97.903 164.461,96.255 162.986,96.367C163.342,97.924 163.627,99.511 163.841,101.098C164.054,102.685 163.973,104.333 164.227,105.9C164.565,108.672 164.5,111.479 164.034,114.232C163.991,114.416 163.967,114.603 163.963,114.792Z" style="fill:url(#_Linear15);fill-rule:nonzero;"/>
            </g>
            <g transform="matrix(1,0,0,1,455.412,-29.0612)">
                <path d="M176.344,101.546C176.505,101.627 176.626,101.77 176.68,101.942C176.683,102.111 176.621,102.275 176.507,102.4C175.583,103.705 174.423,104.826 173.089,105.707C172.96,105.809 172.805,105.873 172.641,105.89C172.454,105.87 172.278,105.787 172.143,105.656C170.108,104.099 168.073,102.604 166.089,100.976C164.806,100.065 163.673,98.96 162.732,97.7C162.04,96.562 161.512,95.333 161.165,94.047C159.954,90.232 163.617,88.574 166.069,91.372C169.304,95.075 172.255,98.687 176.344,101.546Z" style="fill:rgb(152,138,202);fill-rule:nonzero;"/>
            </g>
            <g transform="matrix(1,0,0,1,455.412,-29.0612)">
                <path d="M175.846,155.772C175.738,155.515 175.777,155.219 175.948,154.999C176.171,154.786 176.538,154.887 176.823,154.999C177.452,155.304 178.109,155.546 178.786,155.722C179.468,155.901 180.192,155.825 180.821,155.508C181.167,155.304 181.503,154.999 181.899,155.03C182.099,155.06 182.29,155.132 182.459,155.243C183.07,155.56 183.725,155.783 184.402,155.905C184.687,155.929 184.962,156.019 185.206,156.169C185.279,156.221 185.333,156.296 185.358,156.383C185.358,156.586 185.165,156.739 184.972,156.81C182.856,157.634 180.485,157.329 178.227,157.085C177.973,157.049 177.717,157.049 177.464,157.085C177.087,157.156 176.629,157.349 176.314,157.085C176.044,156.697 175.882,156.244 175.846,155.772Z" style="fill:rgb(71,63,71);fill-rule:nonzero;"/>
            </g>
            <g transform="matrix(1,0,0,1,455.412,-29.0612)">
                <path d="M155.752,161.571C155.685,161.304 155.758,161.02 155.946,160.819C156.2,160.636 156.546,160.819 156.821,160.931C157.412,161.307 158.035,161.63 158.683,161.897C159.339,162.141 160.061,162.141 160.717,161.897C161.084,161.744 161.45,161.48 161.847,161.561C162.039,161.618 162.219,161.711 162.376,161.836C162.936,162.246 163.557,162.566 164.217,162.782C164.5,162.841 164.766,162.966 164.99,163.148C165.057,163.204 165.097,163.285 165.102,163.372C165.102,163.576 164.878,163.698 164.675,163.749C162.467,164.308 160.158,163.749 157.95,163.189C157.702,163.117 157.445,163.08 157.187,163.077C156.811,163.077 156.332,163.24 156.048,162.894C155.841,162.484 155.74,162.03 155.752,161.571Z" style="fill:rgb(71,63,71);fill-rule:nonzero;"/>
            </g>
            <g transform="matrix(1,0,0,1,455.412,-29.0612)">
                <path d="M174.595,80.669C174.422,81.228 174.249,81.788 174.106,82.358C173.945,83.207 173.72,84.044 173.435,84.86C173.141,85.684 172.501,86.339 171.685,86.651C170.834,86.923 169.908,86.471 169.599,85.634C169.111,85.746 168.938,86.346 168.948,86.854C169.03,87.352 168.936,87.863 168.683,88.299C168.226,88.838 167.33,88.615 166.73,88.228C164.875,86.978 163.953,84.722 164.4,82.531C164.899,80.262 164.878,77.545 166.171,75.582C166.635,74.919 167.226,74.355 167.91,73.923C168.51,73.485 169.209,73.201 169.945,73.099C170.46,73.069 170.977,73.11 171.481,73.221C173.638,73.588 175.469,73.903 175.48,76.375C175.413,77.844 175.115,79.293 174.595,80.669Z" style="fill:rgb(252,189,186);fill-rule:nonzero;"/>
            </g>
            <g transform="matrix(1,0,0,1,455.412,-29.0612)">
                <path d="M171.939,76.67C171.603,76.67 171.217,76.589 170.922,76.792C170.627,76.996 170.606,77.454 170.423,77.81C170.067,78.471 169.162,78.563 168.48,78.909C167.639,79.358 167.12,80.245 167.137,81.198C167.15,80.898 167.076,80.601 166.923,80.343C166.824,80.193 166.655,80.103 166.474,80.103C166.357,80.103 166.244,80.141 166.15,80.211C166.058,80.32 166.005,80.455 165.998,80.598C165.941,81.188 166.196,81.766 166.669,82.124C166.238,83.013 165.327,83.574 164.339,83.558C164.033,83.565 163.734,83.465 163.495,83.273C163.344,83.119 163.233,82.93 163.169,82.724C162.589,81.096 163.474,79.356 163.688,77.637C163.708,77.03 163.808,76.428 163.983,75.846C164.172,75.436 164.43,75.06 164.746,74.737C165.696,73.597 166.953,72.753 168.368,72.306C169.731,71.929 172.438,72.123 173.506,73.201C173.803,73.579 173.964,74.046 173.964,74.527C173.964,75.659 173.069,76.606 171.939,76.67Z" style="fill:rgb(255,104,28);fill-rule:nonzero;"/>
            </g>
            <g transform="matrix(1,0,0,1,491,-5)">
                <path d="M146.494,126.736L128.303,126.736L129.219,124.315L147.41,124.315L146.494,126.736Z" style="fill:rgb(152,138,202);fill-rule:nonzero;"/>
            </g>
            <g transform="matrix(1,0,0,1,491,-5)">
                <path d="M140.899,141.498L122.708,141.498L123.634,139.077L141.824,139.077L140.899,141.498Z" style="fill:rgb(152,138,202);fill-rule:nonzero;"/>
            </g>
            <g transform="matrix(1,0,0,1,491,-5)">
                <path d="M135.313,156.261L117.122,156.261L118.038,153.829L136.229,153.829L135.313,156.261Z" style="fill:rgb(152,138,202);fill-rule:nonzero;"/>
            </g>
            <g transform="matrix(1,0,0,1,455.412,-29.0612)">
                <path d="M164.899,150.797L160.219,163.138L177.443,163.138L176.528,165.56L159.334,165.56L154.664,177.89L171.848,177.89L170.932,180.312L153.718,180.312L149.048,192.653L166.252,192.653L165.336,195.074L148.132,195.074L143.452,207.415L160.646,207.415L159.72,209.836L142.537,209.836L134.865,230.103L131.427,230.103L166.628,137.154C166.895,136.597 167.46,136.241 168.078,136.241C168.913,136.241 169.616,136.892 169.681,137.724C169.68,137.918 169.646,138.111 169.579,138.294L165.764,148.376L182.947,148.376L182.032,150.797L164.899,150.797Z" style="fill:url(#_Linear16);fill-rule:nonzero;"/>
            </g>
            <g transform="matrix(1,0,0,1,491,-5)">
                <path d="M119.9,206.042L116.461,206.042L152.049,112.055L155.488,112.055L119.9,206.042Z" style="fill:url(#_Linear17);fill-rule:nonzero;"/>
            </g>
        </g>
    </g>
    <g id="logo-Light-">
    </g>
    <defs>
        <linearGradient id="_Linear1" x1="0" y1="0" x2="1" y2="0" gradientUnits="userSpaceOnUse" gradientTransform="matrix(2204.55,-15964.1,15964.1,2204.55,10027.9,16917.7)"><stop offset="0" style="stop-color:var(--logo-primary-color);stop-opacity:1"/><stop offset="0.01" style="stop-color:var(--logo-primary-color);stop-opacity:1"/><stop offset="0.08" style="stop-color:var(--logo-primary-color);stop-opacity:0.69"/><stop offset="0.21" style="stop-color:var(--logo-primary-color);stop-opacity:0.32"/><stop offset="1" style="stop-color:var(--logo-primary-color);stop-opacity:0"/></linearGradient>
        <linearGradient id="_Linear2" x1="0" y1="0" x2="1" y2="0" gradientUnits="userSpaceOnUse" gradientTransform="matrix(11687.5,11034.9,-11034.9,11687.5,8610.26,9102.79)"><stop offset="0" style="stop-color:var(--logo-primary-color);stop-opacity:1"/><stop offset="0.01" style="stop-color:var(--logo-primary-color);stop-opacity:1"/><stop offset="0.08" style="stop-color:var(--logo-primary-color);stop-opacity:0.69"/><stop offset="0.21" style="stop-color:var(--logo-primary-color);stop-opacity:0.32"/><stop offset="1" style="stop-color:var(--logo-primary-color);stop-opacity:0"/></linearGradient>
        <linearGradient id="_Linear3" x1="0" y1="0" x2="1" y2="0" gradientUnits="userSpaceOnUse" gradientTransform="matrix(11687.5,11034.9,-11034.9,11687.5,8610.26,9102.79)"><stop offset="0" style="stop-color:var(--logo-primary-color);stop-opacity:1"/><stop offset="0.01" style="stop-color:var(--logo-primary-color);stop-opacity:1"/><stop offset="0.08" style="stop-color:var(--logo-primary-color);stop-opacity:0.69"/><stop offset="0.21" style="stop-color:var(--logo-primary-color);stop-opacity:0.32"/><stop offset="1" style="stop-color:var(--logo-primary-color);stop-opacity:0"/></linearGradient>
        <linearGradient id="_Linear4" x1="0" y1="0" x2="1" y2="0" gradientUnits="userSpaceOnUse" gradientTransform="matrix(11687.5,11034.9,-11034.9,11687.5,8610.26,9102.79)"><stop offset="0" style="stop-color:var(--logo-primary-color);stop-opacity:1"/><stop offset="0.01" style="stop-color:var(--logo-primary-color);stop-opacity:1"/><stop offset="0.08" style="stop-color:var(--logo-primary-color);stop-opacity:0.69"/><stop offset="0.21" style="stop-color:var(--logo-primary-color);stop-opacity:0.32"/><stop offset="1" style="stop-color:var(--logo-primary-color);stop-opacity:0"/></linearGradient>
        <linearGradient id="_Linear5" x1="0" y1="0" x2="1" y2="0" gradientUnits="userSpaceOnUse" gradientTransform="matrix(11687.5,11034.9,-11034.9,11687.5,8610.26,9102.79)"><stop offset="0" style="stop-color:var(--logo-primary-color);stop-opacity:1"/><stop offset="0.01" style="stop-color:var(--logo-primary-color);stop-opacity:1"/><stop offset="0.08" style="stop-color:var(--logo-primary-color);stop-opacity:0.69"/><stop offset="0.21" style="stop-color:var(--logo-primary-color);stop-opacity:0.32"/><stop offset="1" style="stop-color:var(--logo-primary-color);stop-opacity:0"/></linearGradient>
        <linearGradient id="_Linear6" x1="0" y1="0" x2="1" y2="0" gradientUnits="userSpaceOnUse" gradientTransform="matrix(11687.5,11034.9,-11034.9,11687.5,8610.26,9102.79)"><stop offset="0" style="stop-color:var(--logo-primary-color);stop-opacity:1"/><stop offset="0.01" style="stop-color:var(--logo-primary-color);stop-opacity:1"/><stop offset="0.08" style="stop-color:var(--logo-primary-color);stop-opacity:0.69"/><stop offset="0.21" style="stop-color:var(--logo-primary-color);stop-opacity:0.32"/><stop offset="1" style="stop-color:var(--logo-primary-color);stop-opacity:0"/></linearGradient>
        <linearGradient id="_Linear7" x1="0" y1="0" x2="1" y2="0" gradientUnits="userSpaceOnUse" gradientTransform="matrix(11687.5,11034.9,-11034.9,11687.5,8610.26,9102.79)"><stop offset="0" style="stop-color:var(--logo-primary-color);stop-opacity:1"/><stop offset="0.01" style="stop-color:var(--logo-primary-color);stop-opacity:1"/><stop offset="0.08" style="stop-color:var(--logo-primary-color);stop-opacity:0.69"/><stop offset="0.21" style="stop-color:var(--logo-primary-color);stop-opacity:0.32"/><stop offset="1" style="stop-color:var(--logo-primary-color);stop-opacity:0"/></linearGradient>
        <linearGradient id="_Linear8" x1="0" y1="0" x2="1" y2="0" gradientUnits="userSpaceOnUse" gradientTransform="matrix(11687.5,11034.9,-11034.9,11687.5,8610.26,9102.79)"><stop offset="0" style="stop-color:var(--logo-primary-color);stop-opacity:1"/><stop offset="0.01" style="stop-color:var(--logo-primary-color);stop-opacity:1"/><stop offset="0.08" style="stop-color:var(--logo-primary-color);stop-opacity:0.69"/><stop offset="0.21" style="stop-color:var(--logo-primary-color);stop-opacity:0.32"/><stop offset="1" style="stop-color:var(--logo-primary-color);stop-opacity:0"/></linearGradient>
        <linearGradient id="_Linear9" x1="0" y1="0" x2="1" y2="0" gradientUnits="userSpaceOnUse" gradientTransform="matrix(11687.5,11034.9,-11034.9,11687.5,8610.26,9102.79)"><stop offset="0" style="stop-color:var(--logo-primary-color);stop-opacity:1"/><stop offset="0.01" style="stop-color:var(--logo-primary-color);stop-opacity:1"/><stop offset="0.08" style="stop-color:var(--logo-primary-color);stop-opacity:0.69"/><stop offset="0.21" style="stop-color:var(--logo-primary-color);stop-opacity:0.32"/><stop offset="1" style="stop-color:var(--logo-primary-color);stop-opacity:0"/></linearGradient>
        <linearGradient id="_Linear10" x1="0" y1="0" x2="1" y2="0" gradientUnits="userSpaceOnUse" gradientTransform="matrix(11687.5,11034.9,-11034.9,11687.5,8610.26,9102.79)"><stop offset="0" style="stop-color:var(--logo-primary-color);stop-opacity:1"/><stop offset="0.01" style="stop-color:var(--logo-primary-color);stop-opacity:1"/><stop offset="0.08" style="stop-color:var(--logo-primary-color);stop-opacity:0.69"/><stop offset="0.21" style="stop-color:var(--logo-primary-color);stop-opacity:0.32"/><stop offset="1" style="stop-color:var(--logo-primary-color);stop-opacity:0"/></linearGradient>
        <linearGradient id="_Linear11" x1="0" y1="0" x2="1" y2="0" gradientUnits="userSpaceOnUse" gradientTransform="matrix(1420.85,3306.42,-3306.42,1420.85,6590.63,2235.49)"><stop offset="0" style="stop-color:var(--logo-primary-color);stop-opacity:1"/><stop offset="0.01" style="stop-color:var(--logo-primary-color);stop-opacity:1"/><stop offset="0.08" style="stop-color:var(--logo-primary-color);stop-opacity:0.69"/><stop offset="0.21" style="stop-color:var(--logo-primary-color);stop-opacity:0.32"/><stop offset="1" style="stop-color:var(--logo-primary-color);stop-opacity:0"/></linearGradient>
        <linearGradient id="_Linear12" x1="0" y1="0" x2="1" y2="0" gradientUnits="userSpaceOnUse" gradientTransform="matrix(394.507,67.8385,-67.8385,394.507,2939.88,1116.46)"><stop offset="0" style="stop-color:var(--logo-primary-color);stop-opacity:1"/><stop offset="0.01" style="stop-color:var(--logo-primary-color);stop-opacity:1"/><stop offset="0.08" style="stop-color:var(--logo-primary-color);stop-opacity:0.69"/><stop offset="0.21" style="stop-color:var(--logo-primary-color);stop-opacity:0.32"/><stop offset="1" style="stop-color:var(--logo-primary-color);stop-opacity:0"/></linearGradient>
        <linearGradient id="_Linear13" x1="0" y1="0" x2="1" y2="0" gradientUnits="userSpaceOnUse" gradientTransform="matrix(-88.2149,-179.104,179.104,-88.2149,184.728,153.158)"><stop offset="0" style="stop-color:var(--logo-primary-color);stop-opacity:1"/><stop offset="0.01" style="stop-color:var(--logo-primary-color);stop-opacity:1"/><stop offset="0.08" style="stop-color:var(--logo-primary-color);stop-opacity:0.69"/><stop offset="0.21" style="stop-color:var(--logo-primary-color);stop-opacity:0.32"/><stop offset="1" style="stop-color:var(--logo-primary-color);stop-opacity:0"/></linearGradient>
        <linearGradient id="_Linear14" x1="0" y1="0" x2="1" y2="0" gradientUnits="userSpaceOnUse" gradientTransform="matrix(148.672,496.554,-496.554,148.672,2668.38,1108.92)"><stop offset="0" style="stop-color:var(--logo-primary-color);stop-opacity:1"/><stop offset="0.01" style="stop-color:var(--logo-primary-color);stop-opacity:1"/><stop offset="0.08" style="stop-color:var(--logo-primary-color);stop-opacity:0.69"/><stop offset="0.21" style="stop-color:var(--logo-primary-color);stop-opacity:0.32"/><stop offset="1" style="stop-color:var(--logo-primary-color);stop-opacity:0"/></linearGradient>
        <linearGradient id="_Linear15" x1="0" y1="0" x2="1" y2="0" gradientUnits="userSpaceOnUse" gradientTransform="matrix(-144.908,397.435,-397.435,-144.908,1187.65,1575.23)"><stop offset="0" style="stop-color:var(--logo-primary-color);stop-opacity:1"/><stop offset="0.01" style="stop-color:var(--logo-primary-color);stop-opacity:1"/><stop offset="0.08" style="stop-color:var(--logo-primary-color);stop-opacity:0.69"/><stop offset="0.21" style="stop-color:var(--logo-primary-color);stop-opacity:0.32"/><stop offset="1" style="stop-color:var(--logo-primary-color);stop-opacity:0"/></linearGradient>
        <linearGradient id="_Linear16" x1="0" y1="0" x2="1" y2="0" gradientUnits="userSpaceOnUse" gradientTransform="matrix(-3751.21,3919.65,-3919.65,-3751.21,8554.01,14973.8)"><stop offset="0" style="stop-color:var(--logo-primary-color);stop-opacity:1"/><stop offset="0.01" style="stop-color:var(--logo-primary-color);stop-opacity:1"/><stop offset="0.08" style="stop-color:var(--logo-primary-color);stop-opacity:0.69"/><stop offset="0.21" style="stop-color:var(--logo-primary-color);stop-opacity:0.32"/><stop offset="1" style="stop-color:var(--logo-primary-color);stop-opacity:0"/></linearGradient>
        <linearGradient id="_Linear17" x1="0" y1="0" x2="1" y2="0" gradientUnits="userSpaceOnUse" gradientTransform="matrix(-4981.41,6879.8,-6879.8,-4981.41,5226.66,13689.3)"><stop offset="0" style="stop-color:var(--logo-primary-color);stop-opacity:1"/><stop offset="0.01" style="stop-color:var(--logo-primary-color);stop-opacity:1"/><stop offset="0.08" style="stop-color:var(--logo-primary-color);stop-opacity:0.69"/><stop offset="0.21" style="stop-color:var(--logo-primary-color);stop-opacity:0.32"/><stop offset="1" style="stop-color:var(--logo-primary-color);stop-opacity:0"/></linearGradient>
    </defs>
</svg>
